<?xml version="1.0" encoding="UTF-8" standalone="no"?>
<svg
   xmlns:dc="http://purl.org/dc/elements/1.1/"
   xmlns:cc="http://creativecommons.org/ns#"
   xmlns:rdf="http://www.w3.org/1999/02/22-rdf-syntax-ns#"
   xmlns:svg="http://www.w3.org/2000/svg"
   xmlns="http://www.w3.org/2000/svg"
   xmlns:sodipodi="http://sodipodi.sourceforge.net/DTD/sodipodi-0.dtd"
   xmlns:inkscape="http://www.inkscape.org/namespaces/inkscape"
   width="210mm"
   height="297mm"
   viewBox="0 0 210 297"
   version="1.1"
   id="svg8"
   inkscape:version="1.0.1 (c497b03c, 2020-09-10)"
   sodipodi:docname="logodrawing.svg">
  <defs
     id="defs2">
    <filter
       inkscape:collect="always"
       style="color-interpolation-filters:sRGB"
       id="filter983"
       x="-0.016386239"
       width="1.0327725"
       y="-0.02660104"
       height="1.0532021">
      <feGaussianBlur
         inkscape:collect="always"
         stdDeviation="0.45161728"
         id="feGaussianBlur985" />
    </filter>
  </defs>
  <sodipodi:namedview
     id="base"
     pagecolor="#ffffff"
     bordercolor="#666666"
     borderopacity="1.0"
     inkscape:pageopacity="0.0"
     inkscape:pageshadow="2"
     inkscape:zoom="0.5077862"
     inkscape:cx="396.85039"
     inkscape:cy="561.25984"
     inkscape:document-units="mm"
     inkscape:current-layer="layer1"
     inkscape:document-rotation="0"
     showgrid="false"
     inkscape:window-width="1252"
     inkscape:window-height="778"
     inkscape:window-x="28"
     inkscape:window-y="0"
     inkscape:window-maximized="0" />
  <metadata
     id="metadata5">
    <rdf:RDF>
      <cc:Work
         rdf:about="">
        <dc:format>image/svg+xml</dc:format>
        <dc:type
           rdf:resource="http://purl.org/dc/dcmitype/StillImage" />
        <dc:title></dc:title>
      </cc:Work>
    </rdf:RDF>
  </metadata>
  <g
     inkscape:label="Layer 1"
     inkscape:groupmode="layer"
     id="layer1"
     style="display:inline">
    <ellipse
       style="fill:#00c800;stroke-width:0.264583;fill-opacity:1"
       id="path896"
       cx="37.570831"
       cy="99.48333"
       rx="6.3499999"
       ry="6.8791666" />
    <ellipse
       style="fill:#00c800;stroke-width:0.264583;fill-opacity:1"
       id="path906"
       cx="38.893749"
       cy="144.19792"
       rx="6.614583"
       ry="6.0854168" />
    <ellipse
       style="fill:#00c800;stroke-width:0.264583;fill-opacity:1"
       id="path908"
       cx="40.216667"
       cy="193.675"
       rx="6.3499999"
       ry="5.8208332" />
    <ellipse
       style="fill:#00c800;stroke-width:0.264583;fill-opacity:1"
       id="path910"
       cx="100.80625"
       cy="70.908333"
       rx="6.614583"
       ry="7.4083333" />
    <ellipse
       style="fill:#00c800;stroke-width:0.264583;fill-opacity:1"
       id="path912"
       cx="102.65833"
       cy="121.97292"
       rx="6.8791666"
       ry="6.614583" />
    <ellipse
       style="fill:#00c800;stroke-width:0.264583;fill-opacity:1"
       id="path920"
       cx="103.98125"
       cy="181.23958"
       rx="6.0854168"
       ry="5.5562501" />
    <circle
       style="fill:#00c800;stroke-width:0.26458333;stroke-miterlimit:4;stroke-dasharray:none;stroke:none;fill-opacity:1"
       id="path924"
       cx="105.56875"
       cy="235.21458"
       r="5.5562501" />
    <ellipse
       style="fill:#00c800;stroke-width:0.264583;fill-opacity:1"
       id="path935"
       cx="163.5125"
       cy="120.38541"
       rx="6.8791666"
       ry="6.0854168" />
    <ellipse
       style="fill:#00c800;stroke-width:0.264583;fill-opacity:1"
       id="path937"
       cx="168.01042"
       cy="183.88542"
       rx="5.5562501"
       ry="5.0270834" />
    <path
       style="fill:none;stroke:#000000;stroke-width:0.264583px;stroke-linecap:butt;stroke-linejoin:miter;stroke-opacity:1"
       d="M 37.041666,101.6 C 34.925,102.12917 96.837499,72.495832 96.837499,72.495832 l 7.937501,-2.116666 -4.23333,-0.529167"
       id="path939" />
    <path
       style="fill:none;stroke:#000000;stroke-width:0.264583px;stroke-linecap:butt;stroke-linejoin:miter;stroke-opacity:1"
       d="M 100.54167,69.849999 162.98333,118.53333 103.1875,122.2375 37.041666,101.6 103.71667,182.5625 162.45416,118.53333 106.3625,233.89166"
       id="path945" />
    <path
       style="fill:none;stroke:#000000;stroke-width:0.264583px;stroke-linecap:butt;stroke-linejoin:miter;stroke-opacity:1"
       d="m 37.041666,101.6 69.320834,132.29166 -69.85,-93.6625 67.20417,42.33334 -63.500004,10.58333"
       id="path947" />
    <path
       style="fill:none;stroke:#000000;stroke-width:0.264583px;stroke-linecap:butt;stroke-linejoin:miter;stroke-opacity:1"
       d="M 168.80416,183.09166 103.1875,122.2375 36.5125,140.22916 104.775,70.379166 40.216666,193.14583 103.1875,122.2375"
       id="path949" />
    <path
       style="fill:none;stroke:#000000;stroke-width:0.264583px;stroke-linecap:butt;stroke-linejoin:miter;stroke-opacity:1"
       d="m 106.3625,233.89166 62.44166,-50.8"
       id="path951" />
    <path
       style="fill:none;stroke:#000000;stroke-width:0.953029;stroke-linecap:butt;stroke-linejoin:miter;stroke-miterlimit:4;stroke-dasharray:none;stroke-opacity:1;filter:url(#filter983)"
       d="M 40.216666,193.14583 106.3625,233.89166"
       id="path953" />
    <path
       style="fill:none;stroke:#000000;stroke-width:0.9525;stroke-linecap:butt;stroke-linejoin:miter;stroke-miterlimit:4;stroke-dasharray:none;stroke-opacity:1"
       d="M 37.041666,101.6 Z"
       id="path987" />
    <path
       style="opacity:0.04;fill:#008000;stroke:#000000;stroke-width:0.79375;stroke-linecap:butt;stroke-linejoin:miter;stroke-miterlimit:4;stroke-dasharray:none;stroke-opacity:1"
       d="M 104.775,70.379166 100.54167,69.849999 37.041666,101.6 100.54167,69.849999"
       id="path989" />
    <path
       style="fill:#008000;stroke:#000000;stroke-width:0.79375;stroke-linecap:butt;stroke-linejoin:miter;stroke-opacity:1"
       d="m 100.54167,69.849999 v 0 L 37.041666,101.6 100.54167,69.849999"
       id="path991" />
    <path
       style="fill:none;stroke:#005700;stroke-width:0.26458299;stroke-linecap:butt;stroke-linejoin:miter;stroke-opacity:1"
       d="M 37.041666,101.6 100.54167,69.849999 v 0 L 162.98333,118.53333 103.1875,122.2375 36.5125,140.22916 104.775,70.379166 40.216666,193.14583 103.1875,122.2375 Z"
       id="path993" />
    <path
       style="fill:none;stroke:#000000;stroke-width:0.264583px;stroke-linecap:butt;stroke-linejoin:miter;stroke-opacity:1"
       d="M 37.041666,101.6 100.54167,69.849999 162.45416,118.53333 103.1875,122.2375 36.5125,140.22916 104.775,70.379166 40.216666,193.14583 103.1875,122.2375 Z"
       id="path995" />
    <path
       style="fill:none;stroke:#005600;stroke-width:1.08479167;stroke-linecap:butt;stroke-linejoin:miter;stroke-opacity:1;stroke-miterlimit:4;stroke-dasharray:none"
       d="m 37.041666,101.6 66.675004,80.9625 58.73749,-64.02917 -56.09166,115.35833 62.44166,-50.8 L 103.1875,122.2375 40.216666,193.14583 104.775,70.379166 36.5125,140.22916 103.1875,122.2375 Z"
       id="path997" />
    <path
       style="fill:none;stroke:#005100;stroke-width:1.05833333;stroke-linecap:butt;stroke-linejoin:miter;stroke-opacity:1;stroke-miterlimit:4;stroke-dasharray:none"
       d="m 103.71667,182.5625 -63.500004,10.58333 66.145834,40.74583 -69.85,-93.6625 67.20417,42.33334 58.73749,-64.02917 -61.91249,-48.683331"
       id="path999" />
    <path
       style="fill:none;stroke:#000000;stroke-width:0.264583px;stroke-linecap:butt;stroke-linejoin:miter;stroke-opacity:1"
       d="M 104.775,70.379166 Z"
       id="path1001" />
    <path
       style="fill:none;stroke:#00c800;stroke-width:1.05833333;stroke-linecap:butt;stroke-linejoin:miter;stroke-opacity:1;stroke-miterlimit:4;stroke-dasharray:none"
       d="M 37.041666,101.6 106.3625,233.89166 162.45416,118.53333 103.1875,122.2375"
       id="path1003" />
    <path
       style="fill:none;stroke:#00c800;stroke-width:1.05833333;stroke-linecap:butt;stroke-linejoin:miter;stroke-opacity:1;stroke-miterlimit:4;stroke-dasharray:none"
       d="M 100.54167,69.849999 37.041666,101.6 l 66.145834,20.6375 65.61666,60.85416 -62.44166,50.8 -66.145834,-40.74583 63.500004,-10.58333 58.73749,-64.02917 z"
       id="path1005" />
    <path
       style="fill:none;stroke:#000000;stroke-width:0.264583px;stroke-linecap:butt;stroke-linejoin:miter;stroke-opacity:1"
       d="M 36.5125,140.22916 104.775,70.379166 40.216666,193.14583 103.1875,122.2375 Z"
       id="path1007" />
    <path
       style="fill:none;stroke:#00c800;stroke-width:1.05833333;stroke-linecap:butt;stroke-linejoin:miter;stroke-opacity:1;stroke-miterlimit:4;stroke-dasharray:none"
       d="M 103.71667,182.5625 37.041666,101.6 l 66.145834,20.6375 -66.675,17.99166 67.20417,42.33334 -63.500004,10.58333 62.970834,-70.90833 -66.675,17.99166 69.85,93.6625 L 40.216666,193.14583 104.775,70.379166 36.5125,140.22916"
       id="path1009" />
    <path
       style="fill:none;stroke:#00c800;stroke-width:1.05833333;stroke-linecap:butt;stroke-linejoin:miter;stroke-opacity:1;stroke-miterlimit:4;stroke-dasharray:none"
       d="m 168.80416,183.09166 v 0 l -65.08749,-0.52916 v 0 0 0"
       id="path1035" />
    <ellipse
       style="opacity:0.04;fill:#00ff00;stroke:#00c800;stroke-width:1.05833;stroke-miterlimit:4;stroke-dasharray:none;stroke-opacity:1"
       id="path1037"
       cx="37.041664"
       cy="101.6"
       rx="1.1215867"
       ry="3.840744" />
    <ellipse
       style="opacity:0.04;fill:#00ff00;stroke:#00c800;stroke-width:1.05833;stroke-miterlimit:4;stroke-dasharray:none;stroke-opacity:1"
       id="path1048"
       cx="37.041664"
       cy="101.6"
       rx="2.05703"
       ry="4.40201" />
    <ellipse
       style="opacity:0.04;fill:#00ff00;stroke:#00c800;stroke-width:1.05833;stroke-miterlimit:4;stroke-dasharray:none;stroke-opacity:1"
       id="path1056"
       cx="104.775"
       cy="70.379166"
       rx="1.8520855"
       ry="1.3229165" />
    <ellipse
       style="opacity:0.04;fill:#00c800;fill-opacity:1;stroke:#00c800;stroke-width:1.05833;stroke-miterlimit:4;stroke-dasharray:none;stroke-opacity:1"
       id="path1058"
       cx="96.837502"
       cy="72.495834"
       rx="1.8520855"
       ry="1.3229165" />
    <ellipse
       style="opacity:0.04;fill:#00c800;fill-opacity:1;stroke:#00c800;stroke-width:1.05833;stroke-miterlimit:4;stroke-dasharray:none;stroke-opacity:1"
       id="path1063"
       cx="37.041664"
       cy="101.6"
       rx="0.93449807"
       ry="3.6536555" />
    <path
       style="fill:none;stroke:#00c800;stroke-width:1.05833333;stroke-linecap:butt;stroke-linejoin:miter;stroke-opacity:1;stroke-miterlimit:4;stroke-dasharray:none"
       d="m 100.54167,69.849999 68.26249,113.241661 v 0"
       id="path1065" />
    <ellipse
       style="opacity:0.01;fill:#000000;fill-opacity:0;stroke:#00c800;stroke-width:1.05833;stroke-miterlimit:4;stroke-dasharray:none;stroke-opacity:1"
       id="path1072"
       cx="102.65833"
       cy="70.114586"
       rx="2.1166649"
       ry="0.2645835" />
    <path
       style="opacity:0.01;fill:#000000;fill-opacity:0;stroke:#00c800;stroke-width:7.87733;stroke-miterlimit:4;stroke-dasharray:none;stroke-opacity:1"
       d="m 376.1724,302.22711 c 0,-2.49797 10.20533,-20.9103 11.09614,-20.01949 1.06294,1.06294 -8.56993,21.06963 -10.14465,21.06963 -0.52332,0 -0.95149,-0.47256 -0.95149,-1.05014 z"
       id="path1077"
       transform="scale(0.26458333)" />
    <path
       style="opacity:0.01;fill:#000000;fill-opacity:0;stroke:#00c800;stroke-width:7.87733;stroke-miterlimit:4;stroke-dasharray:none;stroke-opacity:1"
       d="m 344.66308,318.04568 c 0,-1.04528 9.08354,-11.2078 20.18566,-22.58336 11.10211,-11.37556 16.4419,-17.21475 11.86619,-12.97597 -8.14418,7.5445 -8.4035,7.63082 -12.30833,4.097 -7.1648,-6.48406 -3.90795,-10.19744 12.25813,-13.97644 6.23011,-1.45635 6.905,-3.71448 1.96934,-6.58924 -2.7798,-1.61909 -2.86455,-2.01889 -0.43819,-2.06719 1.65447,-0.0329 5.01579,1.34633 7.46959,3.06504 3.75399,2.62939 4.97493,2.70746 7.69958,0.49233 2.82766,-2.29889 3.06226,-2.16411 1.85075,1.06335 -0.78598,2.09387 -0.30558,5.02804 1.10828,6.76905 2.10766,2.59535 1.96967,2.87608 -0.88762,1.80573 -1.86079,-0.69705 -3.99167,-0.28295 -4.73527,0.92023 -0.74361,1.20318 -0.54067,1.68616 0.45098,1.07329 0.99165,-0.61287 3.51799,0.13972 5.6141,1.67243 2.80912,2.05408 3.23219,3.36566 1.60917,4.98868 -1.21106,1.21105 -1.82063,3.20168 -1.3546,4.42362 0.50363,1.3205 -1.55586,2.30675 -5.07722,2.43138 -6.66425,0.23588 -6.75675,0.10168 -3.77278,-5.47392 1.56191,-2.91846 1.55322,-4.61917 -0.0317,-6.20409 -1.59841,-1.5984 -7.71571,3.32994 -22.82978,18.39257 -11.35546,11.31682 -20.64629,19.7208 -20.64629,18.67551 z"
       id="path1079"
       transform="scale(0.26458333)" />
    <path
       style="opacity:0.01;fill:#00c800;fill-opacity:0;stroke:#00c800;stroke-width:7.87733;stroke-miterlimit:4;stroke-dasharray:none;stroke-opacity:1"
       d="m 386.89947,290.19922 c 0.59891,-1.47215 1.58299,-3.89167 2.18685,-5.37671 0.60386,-1.48504 -0.40537,-4.20336 -2.24272,-6.04072 -3.1413,-3.1413 -3.79138,-2.9005 -10.89439,4.0354 -7.39358,7.21964 -7.63832,7.29949 -11.54261,3.76616 -7.1648,-6.48406 -3.90795,-10.19744 12.25813,-13.97644 6.23011,-1.45635 6.905,-3.71448 1.96934,-6.58924 -2.7798,-1.61909 -2.86455,-2.01889 -0.43819,-2.06719 1.65447,-0.0329 5.01579,1.34633 7.46959,3.06504 3.75399,2.62939 4.97493,2.70746 7.69958,0.49233 2.82766,-2.29889 3.06226,-2.16411 1.85075,1.06335 -0.78598,2.09387 -0.30558,5.02804 1.10828,6.76905 2.10766,2.59535 1.96967,2.87608 -0.88762,1.80573 -1.86079,-0.69705 -3.99167,-0.28295 -4.73527,0.92023 -0.74361,1.20318 -0.54067,1.68616 0.45098,1.07329 0.99165,-0.61287 3.51799,0.13972 5.6141,1.67243 2.80912,2.05408 3.23219,3.36566 1.60917,4.98868 -1.21106,1.21105 -1.82063,3.20168 -1.3546,4.42362 0.50554,1.32552 -1.58454,2.3084 -5.18148,2.43666 -4.35453,0.15526 -5.72641,-0.52837 -4.93989,-2.46167 z"
       id="path1081"
       transform="scale(0.26458333)" />
    <path
       style="opacity:0.01;fill:#00c800;fill-opacity:0;stroke:#00c800;stroke-width:7.87733;stroke-miterlimit:4;stroke-dasharray:none;stroke-opacity:1"
       d=""
       id="path1083"
       transform="scale(0.26458333)" />
    <path
       style="opacity:0.01;fill:#00c800;fill-opacity:0;stroke:#00c800;stroke-width:7.87733;stroke-miterlimit:4;stroke-dasharray:none;stroke-opacity:1"
       d=""
       id="path1085"
       transform="scale(0.26458333)" />
    <path
       style="opacity:0.01;fill:#00c800;fill-opacity:0;stroke:#00c800;stroke-width:7.87733;stroke-miterlimit:4;stroke-dasharray:none;stroke-opacity:1"
       d=""
       id="path1087"
       transform="scale(0.26458333)" />
    <path
       style="opacity:0.01;fill:#00c800;fill-opacity:0;stroke:#00c800;stroke-width:7.87733;stroke-miterlimit:4;stroke-dasharray:none;stroke-opacity:1"
       d="m 386.89947,290.19922 c 0.59891,-1.47215 1.58299,-3.89167 2.18685,-5.37671 0.60386,-1.48504 -0.40537,-4.20336 -2.24272,-6.04072 -3.1413,-3.1413 -3.79138,-2.9005 -10.89439,4.0354 -7.39358,7.21964 -7.63832,7.29949 -11.54261,3.76616 -7.1648,-6.48406 -3.90795,-10.19744 12.25813,-13.97644 6.23011,-1.45635 6.905,-3.71448 1.96934,-6.58924 -2.7798,-1.61909 -2.86455,-2.01889 -0.43819,-2.06719 1.65447,-0.0329 5.01579,1.34633 7.46959,3.06504 3.75399,2.62939 4.97493,2.70746 7.69958,0.49233 2.82766,-2.29889 3.06226,-2.16411 1.85075,1.06335 -0.78598,2.09387 -0.30558,5.02804 1.10828,6.76905 2.10766,2.59535 1.96967,2.87608 -0.88762,1.80573 -1.86079,-0.69705 -3.99167,-0.28295 -4.73527,0.92023 -0.74361,1.20318 -0.54067,1.68616 0.45098,1.07329 0.99165,-0.61287 3.51799,0.13972 5.6141,1.67243 2.80912,2.05408 3.23219,3.36566 1.60917,4.98868 -1.21106,1.21105 -1.82063,3.20168 -1.3546,4.42362 0.50554,1.32552 -1.58454,2.3084 -5.18148,2.43666 -4.35453,0.15526 -5.72641,-0.52837 -4.93989,-2.46167 z"
       id="path1089"
       transform="scale(0.26458333)" />
    <path
       style="opacity:0.01;fill:#00c800;fill-opacity:0;stroke:#00c800;stroke-width:7.87733;stroke-miterlimit:4;stroke-dasharray:none;stroke-opacity:1"
       d="m 386.89947,290.19922 c 0.59891,-1.47215 1.58299,-3.89167 2.18685,-5.37671 0.60386,-1.48504 -0.40537,-4.20336 -2.24272,-6.04072 -3.1413,-3.1413 -3.79138,-2.9005 -10.89439,4.0354 -7.39358,7.21964 -7.63832,7.29949 -11.54261,3.76616 -7.1648,-6.48406 -3.90795,-10.19744 12.25813,-13.97644 6.23011,-1.45635 6.905,-3.71448 1.96934,-6.58924 -2.7798,-1.61909 -2.86455,-2.01889 -0.43819,-2.06719 1.65447,-0.0329 5.01579,1.34633 7.46959,3.06504 3.75399,2.62939 4.97493,2.70746 7.69958,0.49233 2.82766,-2.29889 3.06226,-2.16411 1.85075,1.06335 -0.78598,2.09387 -0.30558,5.02804 1.10828,6.76905 2.10766,2.59535 1.96967,2.87608 -0.88762,1.80573 -1.86079,-0.69705 -3.99167,-0.28295 -4.73527,0.92023 -0.74361,1.20318 -0.54067,1.68616 0.45098,1.07329 0.99165,-0.61287 3.51799,0.13972 5.6141,1.67243 2.80912,2.05408 3.23219,3.36566 1.60917,4.98868 -1.21106,1.21105 -1.82063,3.20168 -1.3546,4.42362 0.50554,1.32552 -1.58454,2.3084 -5.18148,2.43666 -4.35453,0.15526 -5.72641,-0.52837 -4.93989,-2.46167 z"
       id="path1091"
       transform="scale(0.26458333)" />
    <path
       style="opacity:0.01;fill:#00c800;fill-opacity:0;stroke:#00c800;stroke-width:7.87733;stroke-miterlimit:4;stroke-dasharray:none;stroke-opacity:1"
       d="m 386.89947,290.19922 c 0.59891,-1.47215 1.58299,-3.89167 2.18685,-5.37671 0.60386,-1.48504 -0.40537,-4.20336 -2.24272,-6.04072 -3.1413,-3.1413 -3.79138,-2.9005 -10.89439,4.0354 -7.39358,7.21964 -7.63832,7.29949 -11.54261,3.76616 -7.1648,-6.48406 -3.90795,-10.19744 12.25813,-13.97644 6.23011,-1.45635 6.905,-3.71448 1.96934,-6.58924 -2.7798,-1.61909 -2.86455,-2.01889 -0.43819,-2.06719 1.65447,-0.0329 5.01579,1.34633 7.46959,3.06504 3.75399,2.62939 4.97493,2.70746 7.69958,0.49233 2.82766,-2.29889 3.06226,-2.16411 1.85075,1.06335 -0.78598,2.09387 -0.30558,5.02804 1.10828,6.76905 2.10766,2.59535 1.96967,2.87608 -0.88762,1.80573 -1.86079,-0.69705 -3.99167,-0.28295 -4.73527,0.92023 -0.74361,1.20318 -0.54067,1.68616 0.45098,1.07329 0.99165,-0.61287 3.51799,0.13972 5.6141,1.67243 2.80912,2.05408 3.23219,3.36566 1.60917,4.98868 -1.21106,1.21105 -1.82063,3.20168 -1.3546,4.42362 0.50554,1.32552 -1.58454,2.3084 -5.18148,2.43666 -4.35453,0.15526 -5.72641,-0.52837 -4.93989,-2.46167 z"
       id="path1093"
       transform="scale(0.26458333)" />
    <path
       style="opacity:0.01;fill:#00c800;fill-opacity:0;stroke:#00c800;stroke-width:7.87733;stroke-miterlimit:4;stroke-dasharray:none;stroke-opacity:1"
       d="m 386.89947,290.19922 c 0.59891,-1.47215 1.58299,-3.89167 2.18685,-5.37671 0.60386,-1.48504 -0.40537,-4.20336 -2.24272,-6.04072 -3.1413,-3.1413 -3.79138,-2.9005 -10.89439,4.0354 -7.39358,7.21964 -7.63832,7.29949 -11.54261,3.76616 -7.1648,-6.48406 -3.90795,-10.19744 12.25813,-13.97644 6.23011,-1.45635 6.905,-3.71448 1.96934,-6.58924 -2.7798,-1.61909 -2.86455,-2.01889 -0.43819,-2.06719 1.65447,-0.0329 5.01579,1.34633 7.46959,3.06504 3.75399,2.62939 4.97493,2.70746 7.69958,0.49233 2.82766,-2.29889 3.06226,-2.16411 1.85075,1.06335 -0.78598,2.09387 -0.30558,5.02804 1.10828,6.76905 2.10766,2.59535 1.96967,2.87608 -0.88762,1.80573 -1.86079,-0.69705 -3.99167,-0.28295 -4.73527,0.92023 -0.74361,1.20318 -0.54067,1.68616 0.45098,1.07329 0.99165,-0.61287 3.51799,0.13972 5.6141,1.67243 2.80912,2.05408 3.23219,3.36566 1.60917,4.98868 -1.21106,1.21105 -1.82063,3.20168 -1.3546,4.42362 0.50554,1.32552 -1.58454,2.3084 -5.18148,2.43666 -4.35453,0.15526 -5.72641,-0.52837 -4.93989,-2.46167 z"
       id="path1095"
       transform="scale(0.26458333)" />
    <path
       style="opacity:0.01;fill:#00c800;fill-opacity:0;stroke:#00c800;stroke-width:7.87733;stroke-miterlimit:4;stroke-dasharray:none;stroke-opacity:1"
       d=""
       id="path1097"
       transform="scale(0.26458333)" />
    <path
       style="opacity:0.01;fill:#00c800;fill-opacity:0;stroke:#00c800;stroke-width:7.87733;stroke-miterlimit:4;stroke-dasharray:none;stroke-opacity:1"
       d="m 386.89947,290.19922 c 0.59891,-1.47215 1.58299,-3.89167 2.18685,-5.37671 0.60386,-1.48504 -0.40537,-4.20336 -2.24272,-6.04072 -3.1413,-3.1413 -3.79138,-2.9005 -10.89439,4.0354 -7.39358,7.21964 -7.63832,7.29949 -11.54261,3.76616 -7.1648,-6.48406 -3.90795,-10.19744 12.25813,-13.97644 6.23011,-1.45635 6.905,-3.71448 1.96934,-6.58924 -2.7798,-1.61909 -2.86455,-2.01889 -0.43819,-2.06719 1.65447,-0.0329 5.01579,1.34633 7.46959,3.06504 3.75399,2.62939 4.97493,2.70746 7.69958,0.49233 2.82766,-2.29889 3.06226,-2.16411 1.85075,1.06335 -0.78598,2.09387 -0.30558,5.02804 1.10828,6.76905 2.10766,2.59535 1.96967,2.87608 -0.88762,1.80573 -1.86079,-0.69705 -3.99167,-0.28295 -4.73527,0.92023 -0.74361,1.20318 -0.54067,1.68616 0.45098,1.07329 0.99165,-0.61287 3.51799,0.13972 5.6141,1.67243 2.80912,2.05408 3.23219,3.36566 1.60917,4.98868 -1.21106,1.21105 -1.82063,3.20168 -1.3546,4.42362 0.50554,1.32552 -1.58454,2.3084 -5.18148,2.43666 -4.35453,0.15526 -5.72641,-0.52837 -4.93989,-2.46167 z m -16.63507,-5.41994 c 0,-0.42568 -1.37533,-1.30173 -3.05628,-1.94677 -1.75256,-0.67252 -2.54304,-0.34237 -1.85311,0.77397 1.15651,1.87127 4.90939,2.76779 4.90939,1.1728 z"
       id="path1099"
       transform="scale(0.26458333)" />
    <path
       style="opacity:0.01;fill:#00c800;fill-opacity:0;stroke:#00c800;stroke-width:7.87733;stroke-miterlimit:4;stroke-dasharray:none;stroke-opacity:1"
       d="m 386.89947,290.19922 c 0.59891,-1.47215 1.58299,-3.89167 2.18685,-5.37671 0.60386,-1.48504 -0.40537,-4.20336 -2.24272,-6.04072 -3.1413,-3.1413 -3.79138,-2.9005 -10.89439,4.0354 -7.39358,7.21964 -7.63832,7.29949 -11.54261,3.76616 -7.1648,-6.48406 -3.90795,-10.19744 12.25813,-13.97644 6.23011,-1.45635 6.905,-3.71448 1.96934,-6.58924 -2.7798,-1.61909 -2.86455,-2.01889 -0.43819,-2.06719 1.65447,-0.0329 5.01579,1.34633 7.46959,3.06504 3.75399,2.62939 4.97493,2.70746 7.69958,0.49233 2.82766,-2.29889 3.06226,-2.16411 1.85075,1.06335 -0.78598,2.09387 -0.30558,5.02804 1.10828,6.76905 2.10766,2.59535 1.96967,2.87608 -0.88762,1.80573 -1.86079,-0.69705 -3.99167,-0.28295 -4.73527,0.92023 -0.74361,1.20318 -0.54067,1.68616 0.45098,1.07329 0.99165,-0.61287 3.51799,0.13972 5.6141,1.67243 2.80912,2.05408 3.23219,3.36566 1.60917,4.98868 -1.21106,1.21105 -1.82063,3.20168 -1.3546,4.42362 0.50554,1.32552 -1.58454,2.3084 -5.18148,2.43666 -4.35453,0.15526 -5.72641,-0.52837 -4.93989,-2.46167 z m -16.63507,-5.41994 c 0,-0.42568 -1.37533,-1.30173 -3.05628,-1.94677 -1.75256,-0.67252 -2.54304,-0.34237 -1.85311,0.77397 1.15651,1.87127 4.90939,2.76779 4.90939,1.1728 z"
       id="path1101"
       transform="scale(0.26458333)" />
    <path
       style="opacity:0.01;fill:#00c800;fill-opacity:0;stroke:#00c800;stroke-width:7.87733;stroke-miterlimit:4;stroke-dasharray:none;stroke-opacity:1"
       d="m 386.89947,290.19922 c 0.59891,-1.47215 1.58299,-3.89167 2.18685,-5.37671 0.60386,-1.48504 -0.40537,-4.20336 -2.24272,-6.04072 -3.1413,-3.1413 -3.79138,-2.9005 -10.89439,4.0354 -7.39358,7.21964 -7.63832,7.29949 -11.54261,3.76616 -7.1648,-6.48406 -3.90795,-10.19744 12.25813,-13.97644 6.23011,-1.45635 6.905,-3.71448 1.96934,-6.58924 -2.7798,-1.61909 -2.86455,-2.01889 -0.43819,-2.06719 1.65447,-0.0329 5.01579,1.34633 7.46959,3.06504 3.75399,2.62939 4.97493,2.70746 7.69958,0.49233 2.82766,-2.29889 3.06226,-2.16411 1.85075,1.06335 -0.78598,2.09387 -0.30558,5.02804 1.10828,6.76905 2.10766,2.59535 1.96967,2.87608 -0.88762,1.80573 -1.86079,-0.69705 -3.99167,-0.28295 -4.73527,0.92023 -0.74361,1.20318 -0.54067,1.68616 0.45098,1.07329 0.99165,-0.61287 3.51799,0.13972 5.6141,1.67243 2.80912,2.05408 3.23219,3.36566 1.60917,4.98868 -1.21106,1.21105 -1.82063,3.20168 -1.3546,4.42362 0.50554,1.32552 -1.58454,2.3084 -5.18148,2.43666 -4.35453,0.15526 -5.72641,-0.52837 -4.93989,-2.46167 z m -16.63507,-5.41994 c 0,-0.42568 -1.37533,-1.30173 -3.05628,-1.94677 -1.75256,-0.67252 -2.54304,-0.34237 -1.85311,0.77397 1.15651,1.87127 4.90939,2.76779 4.90939,1.1728 z"
       id="path1103"
       transform="scale(0.26458333)" />
    <path
       style="opacity:0.01;fill:#00c800;fill-opacity:0;stroke:#00c800;stroke-width:7.87733;stroke-miterlimit:4;stroke-dasharray:none;stroke-opacity:1"
       d="m 386.89947,290.19922 c 0.59891,-1.47215 1.58299,-3.89167 2.18685,-5.37671 0.60386,-1.48504 -0.40537,-4.20336 -2.24272,-6.04072 -3.1413,-3.1413 -3.79138,-2.9005 -10.89439,4.0354 -7.39358,7.21964 -7.63832,7.29949 -11.54261,3.76616 -7.1648,-6.48406 -3.90795,-10.19744 12.25813,-13.97644 6.23011,-1.45635 6.905,-3.71448 1.96934,-6.58924 -2.7798,-1.61909 -2.86455,-2.01889 -0.43819,-2.06719 1.65447,-0.0329 5.01579,1.34633 7.46959,3.06504 3.75399,2.62939 4.97493,2.70746 7.69958,0.49233 2.82766,-2.29889 3.06226,-2.16411 1.85075,1.06335 -0.78598,2.09387 -0.30558,5.02804 1.10828,6.76905 2.10766,2.59535 1.96967,2.87608 -0.88762,1.80573 -1.86079,-0.69705 -3.99167,-0.28295 -4.73527,0.92023 -0.74361,1.20318 -0.54067,1.68616 0.45098,1.07329 0.99165,-0.61287 3.51799,0.13972 5.6141,1.67243 2.80912,2.05408 3.23219,3.36566 1.60917,4.98868 -1.21106,1.21105 -1.82063,3.20168 -1.3546,4.42362 0.50554,1.32552 -1.58454,2.3084 -5.18148,2.43666 -4.35453,0.15526 -5.72641,-0.52837 -4.93989,-2.46167 z m -16.63507,-5.41994 c 0,-0.42568 -1.37533,-1.30173 -3.05628,-1.94677 -1.75256,-0.67252 -2.54304,-0.34237 -1.85311,0.77397 1.15651,1.87127 4.90939,2.76779 4.90939,1.1728 z"
       id="path1105"
       transform="scale(0.26458333)" />
    <path
       style="opacity:0.01;fill:#00c800;fill-opacity:0;stroke:#00c800;stroke-width:7.87733;stroke-miterlimit:4;stroke-dasharray:none;stroke-opacity:1"
       d="m 386.89947,290.19922 c 0.59891,-1.47215 1.58299,-3.89167 2.18685,-5.37671 0.60386,-1.48504 -0.40537,-4.20336 -2.24272,-6.04072 -3.1413,-3.1413 -3.79138,-2.9005 -10.89439,4.0354 -7.39358,7.21964 -7.63832,7.29949 -11.54261,3.76616 -7.1648,-6.48406 -3.90795,-10.19744 12.25813,-13.97644 6.23011,-1.45635 6.905,-3.71448 1.96934,-6.58924 -2.7798,-1.61909 -2.86455,-2.01889 -0.43819,-2.06719 1.65447,-0.0329 5.01579,1.34633 7.46959,3.06504 3.75399,2.62939 4.97493,2.70746 7.69958,0.49233 2.82766,-2.29889 3.06226,-2.16411 1.85075,1.06335 -0.78598,2.09387 -0.30558,5.02804 1.10828,6.76905 2.10766,2.59535 1.96967,2.87608 -0.88762,1.80573 -1.86079,-0.69705 -3.99167,-0.28295 -4.73527,0.92023 -0.74361,1.20318 -0.54067,1.68616 0.45098,1.07329 0.99165,-0.61287 3.51799,0.13972 5.6141,1.67243 2.80912,2.05408 3.23219,3.36566 1.60917,4.98868 -1.21106,1.21105 -1.82063,3.20168 -1.3546,4.42362 0.50554,1.32552 -1.58454,2.3084 -5.18148,2.43666 -4.35453,0.15526 -5.72641,-0.52837 -4.93989,-2.46167 z m -16.63507,-5.41994 c 0,-0.42568 -1.37533,-1.30173 -3.05628,-1.94677 -1.75256,-0.67252 -2.54304,-0.34237 -1.85311,0.77397 1.15651,1.87127 4.90939,2.76779 4.90939,1.1728 z"
       id="path1107"
       transform="scale(0.26458333)" />
    <path
       style="opacity:0.01;fill:#00c800;fill-opacity:0;stroke:#00c800;stroke-width:7.87733;stroke-miterlimit:4;stroke-dasharray:none;stroke-opacity:1"
       d="m 386.89947,290.19922 c 0.59891,-1.47215 1.58299,-3.89167 2.18685,-5.37671 0.60386,-1.48504 -0.40537,-4.20336 -2.24272,-6.04072 -3.1413,-3.1413 -3.79138,-2.9005 -10.89439,4.0354 -7.39358,7.21964 -7.63832,7.29949 -11.54261,3.76616 -7.1648,-6.48406 -3.90795,-10.19744 12.25813,-13.97644 6.23011,-1.45635 6.905,-3.71448 1.96934,-6.58924 -2.7798,-1.61909 -2.86455,-2.01889 -0.43819,-2.06719 1.65447,-0.0329 5.01579,1.34633 7.46959,3.06504 3.75399,2.62939 4.97493,2.70746 7.69958,0.49233 2.82766,-2.29889 3.06226,-2.16411 1.85075,1.06335 -0.78598,2.09387 -0.30558,5.02804 1.10828,6.76905 2.10766,2.59535 1.96967,2.87608 -0.88762,1.80573 -1.86079,-0.69705 -3.99167,-0.28295 -4.73527,0.92023 -0.74361,1.20318 -0.54067,1.68616 0.45098,1.07329 0.99165,-0.61287 3.51799,0.13972 5.6141,1.67243 2.80912,2.05408 3.23219,3.36566 1.60917,4.98868 -1.21106,1.21105 -1.82063,3.20168 -1.3546,4.42362 0.50554,1.32552 -1.58454,2.3084 -5.18148,2.43666 -4.35453,0.15526 -5.72641,-0.52837 -4.93989,-2.46167 z m -16.63507,-5.41994 c 0,-0.42568 -1.37533,-1.30173 -3.05628,-1.94677 -1.75256,-0.67252 -2.54304,-0.34237 -1.85311,0.77397 1.15651,1.87127 4.90939,2.76779 4.90939,1.1728 z"
       id="path1109"
       transform="scale(0.26458333)" />
    <path
       style="opacity:0.01;fill:#00c800;fill-opacity:0;stroke:#00c800;stroke-width:7.87733;stroke-miterlimit:4;stroke-dasharray:none;stroke-opacity:1"
       d="m 386.89947,290.19922 c 0.59891,-1.47215 1.58299,-3.89167 2.18685,-5.37671 0.60386,-1.48504 -0.40537,-4.20336 -2.24272,-6.04072 -3.1413,-3.1413 -3.79138,-2.9005 -10.89439,4.0354 -7.39358,7.21964 -7.63832,7.29949 -11.54261,3.76616 -7.1648,-6.48406 -3.90795,-10.19744 12.25813,-13.97644 6.23011,-1.45635 6.905,-3.71448 1.96934,-6.58924 -2.7798,-1.61909 -2.86455,-2.01889 -0.43819,-2.06719 1.65447,-0.0329 5.01579,1.34633 7.46959,3.06504 3.75399,2.62939 4.97493,2.70746 7.69958,0.49233 2.82766,-2.29889 3.06226,-2.16411 1.85075,1.06335 -0.78598,2.09387 -0.30558,5.02804 1.10828,6.76905 2.10766,2.59535 1.96967,2.87608 -0.88762,1.80573 -1.86079,-0.69705 -3.99167,-0.28295 -4.73527,0.92023 -0.74361,1.20318 -0.54067,1.68616 0.45098,1.07329 0.99165,-0.61287 3.51799,0.13972 5.6141,1.67243 2.80912,2.05408 3.23219,3.36566 1.60917,4.98868 -1.21106,1.21105 -1.82063,3.20168 -1.3546,4.42362 0.50554,1.32552 -1.58454,2.3084 -5.18148,2.43666 -4.35453,0.15526 -5.72641,-0.52837 -4.93989,-2.46167 z m -16.63507,-5.41994 c 0,-0.42568 -1.37533,-1.30173 -3.05628,-1.94677 -1.75256,-0.67252 -2.54304,-0.34237 -1.85311,0.77397 1.15651,1.87127 4.90939,2.76779 4.90939,1.1728 z"
       id="path1111"
       transform="scale(0.26458333)" />
    <path
       style="opacity:0.01;fill:#00c800;fill-opacity:0;stroke:#00c800;stroke-width:7.87733;stroke-miterlimit:4;stroke-dasharray:none;stroke-opacity:1"
       d="m 386.89947,290.19922 c 0.59891,-1.47215 1.58299,-3.89167 2.18685,-5.37671 0.60386,-1.48504 -0.40537,-4.20336 -2.24272,-6.04072 -3.1413,-3.1413 -3.79138,-2.9005 -10.89439,4.0354 -7.39358,7.21964 -7.63832,7.29949 -11.54261,3.76616 -7.1648,-6.48406 -3.90795,-10.19744 12.25813,-13.97644 6.23011,-1.45635 6.905,-3.71448 1.96934,-6.58924 -2.7798,-1.61909 -2.86455,-2.01889 -0.43819,-2.06719 1.65447,-0.0329 5.01579,1.34633 7.46959,3.06504 3.75399,2.62939 4.97493,2.70746 7.69958,0.49233 2.82766,-2.29889 3.06226,-2.16411 1.85075,1.06335 -0.78598,2.09387 -0.30558,5.02804 1.10828,6.76905 2.10766,2.59535 1.96967,2.87608 -0.88762,1.80573 -1.86079,-0.69705 -3.99167,-0.28295 -4.73527,0.92023 -0.74361,1.20318 -0.54067,1.68616 0.45098,1.07329 0.99165,-0.61287 3.51799,0.13972 5.6141,1.67243 2.80912,2.05408 3.23219,3.36566 1.60917,4.98868 -1.21106,1.21105 -1.82063,3.20168 -1.3546,4.42362 0.50554,1.32552 -1.58454,2.3084 -5.18148,2.43666 -4.35453,0.15526 -5.72641,-0.52837 -4.93989,-2.46167 z m -16.63507,-5.41994 c 0,-0.42568 -1.37533,-1.30173 -3.05628,-1.94677 -1.75256,-0.67252 -2.54304,-0.34237 -1.85311,0.77397 1.15651,1.87127 4.90939,2.76779 4.90939,1.1728 z"
       id="path1113"
       transform="scale(0.26458333)" />
    <path
       style="opacity:0.01;fill:#00c800;fill-opacity:0;stroke:#00c800;stroke-width:7.87733;stroke-miterlimit:4;stroke-dasharray:none;stroke-opacity:1"
       d="m 346.68513,316.01627 c -0.029,-1.11704 5.2282,-7.25681 11.68267,-13.64392 11.35053,-11.23209 11.59272,-11.68378 7.385,-13.77298 -6.40423,-3.17981 -6.61731,-9.707 -0.40923,-12.53559 2.80839,-1.27959 6.39376,-2.32652 7.96749,-2.32652 1.75792,0 2.86134,-1.94633 2.86134,-5.04712 0,-3.62745 0.9694,-4.94852 3.44633,-4.69656 7.14376,0.72668 9.13657,-0.50654 3.52558,-2.18175 -3.20582,-0.95713 -6.30752,-1 -6.89267,-0.0953 -1.63101,2.52177 -18.04737,10.46369 -19.21514,9.29592 -2.22535,-2.22535 1.82945,-15.19324 6.47805,-20.71778 13.46946,-16.00754 34.01759,-10.02965 40.25253,11.71034 2.36235,8.23702 0.63923,15.8018 -3.25864,14.30604 -2.22416,-0.85349 -2.59229,0.0175 -1.62918,3.85493 0.68435,2.72666 0.32497,5.52573 -0.79862,6.22015 -1.12359,0.69442 -1.63105,2.34195 -1.12768,3.66117 0.58564,1.53485 -1.23399,2.47491 -5.05305,2.61051 -4.8749,0.17308 -5.76405,-0.43149 -4.85357,-3.30017 0.67216,-2.11777 -0.16959,-4.2308 -2.12025,-5.32244 -2.56795,-1.4371 -6.83839,1.88267 -20.71159,16.10083 -9.61216,9.85116 -17.50037,16.99726 -17.52937,15.88022 z m 53.05663,-50.7649 c 0.0344,-0.87627 -0.82357,-1.04552 -1.9067,-0.37611 -1.08313,0.66941 -1.96933,0.22631 -1.96933,-0.98467 0,-1.21098 -0.8862,-1.65408 -1.96934,-0.98466 -1.08313,0.66941 -1.96933,2.10331 -1.96933,3.18644 0,1.08314 0.98114,1.36296 2.18032,0.62183 1.49148,-0.92179 1.73821,0.13031 0.78098,3.33011 -1.3669,4.5692 -1.3276,4.58633 1.69572,0.73895 1.70228,-2.16627 3.12323,-4.65562 3.15768,-5.53189 z"
       id="path1115"
       transform="scale(0.26458333)" />
    <path
       style="opacity:0.01;fill:#00c800;fill-opacity:0;stroke:#00c800;stroke-width:7.87733;stroke-miterlimit:4;stroke-dasharray:none;stroke-opacity:1"
       d="m 386.89947,290.19922 c 0.59891,-1.47215 1.64713,-4.0588 2.32937,-5.74811 0.83848,-2.07617 -0.11158,-3.42505 -2.93185,-4.16256 -2.4382,-0.63761 -3.61513,-2.02115 -2.83175,-3.32885 0.7373,-1.23078 -0.14911,-1.02961 -1.9698,0.44703 -1.82068,1.47664 -2.73492,3.69214 -2.03162,4.92333 0.70329,1.23119 0.53773,1.56577 -0.36792,0.74352 -0.90565,-0.82226 -3.69704,0.43124 -6.2031,2.78556 -4.41892,4.15135 -4.67598,4.17241 -8.51576,0.69745 -5.0637,-4.58258 -5.0407,-8.27203 0.0617,-9.89145 2.82079,-0.89529 3.67425,-2.36861 2.85936,-4.93611 -0.78136,-2.46184 0.15868,-4.36649 2.8717,-5.81845 2.39904,-1.28393 4.03331,-1.39104 4.03331,-0.26434 0,1.04182 1.10775,2.2879 2.46166,2.76908 1.35392,0.48117 -0.19693,0.54739 -3.44633,0.14715 -4.40201,-0.54221 -5.15501,-0.2341 -2.954,1.20872 3.78838,2.48338 11.816,2.56848 11.816,0.12526 0,-1.02931 -1.55085,-2.82661 -3.44633,-3.994 -2.98242,-1.83681 -2.7836,-2.0488 1.477,-1.57486 2.70783,0.30122 5.93518,1.84352 7.17189,3.42733 1.97292,2.52666 2.68199,2.52666 5.78438,0 3.19756,-2.60416 3.4031,-2.52607 2.14846,0.81628 -0.78598,2.09387 -0.30558,5.02804 1.10828,6.76905 2.10766,2.59535 1.96967,2.87608 -0.88762,1.80573 -1.86079,-0.69705 -3.99167,-0.28295 -4.73527,0.92023 -0.74361,1.20318 -0.54067,1.68616 0.45098,1.07329 0.99165,-0.61287 3.51799,0.13972 5.6141,1.67243 2.80912,2.05408 3.23219,3.36566 1.60917,4.98868 -1.21106,1.21105 -1.82063,3.20168 -1.3546,4.42362 0.50554,1.32552 -1.58454,2.3084 -5.18148,2.43666 -4.35453,0.15526 -5.72641,-0.52837 -4.93989,-2.46167 z"
       id="path1117"
       transform="scale(0.26458333)" />
    <path
       style="opacity:0.01;fill:#00c800;fill-opacity:0;stroke:#00c800;stroke-width:7.87733;stroke-miterlimit:4;stroke-dasharray:none;stroke-opacity:1"
       d="m 386.89947,290.19922 c 0.59891,-1.47215 1.58299,-3.89167 2.18685,-5.37671 0.60386,-1.48504 -0.40537,-4.20336 -2.24272,-6.04072 -3.1413,-3.1413 -3.79138,-2.9005 -10.89439,4.0354 -7.39358,7.21964 -7.63832,7.29949 -11.54261,3.76616 -5.63212,-5.097 -4.97088,-8.06322 2.41147,-10.81742 16.79031,-6.26412 16.52554,-6.08116 12.77185,-8.82593 -2.99534,-2.19025 -2.42244,-2.51232 4.46893,-2.51232 6.45182,0 7.49509,0.4936 5.67601,2.68546 -2.79413,3.36671 0.47587,3.54707 4.05751,0.22378 2.1732,-2.01643 2.41638,-1.79319 1.34456,1.23428 -0.71967,2.03277 -0.18545,5.07884 1.18715,6.76905 2.10766,2.59535 1.96967,2.87608 -0.88762,1.80573 -1.86079,-0.69705 -3.99167,-0.28295 -4.73527,0.92023 -0.74361,1.20318 -0.54067,1.68616 0.45098,1.07329 0.99165,-0.61287 3.51799,0.13972 5.6141,1.67243 2.80912,2.05408 3.23219,3.36566 1.60917,4.98868 -1.21106,1.21105 -1.82063,3.20168 -1.3546,4.42362 0.50554,1.32552 -1.58454,2.3084 -5.18148,2.43666 -4.35453,0.15526 -5.72641,-0.52837 -4.93989,-2.46167 z m -16.63507,-5.41994 c 0,-0.42568 -1.37533,-1.30173 -3.05628,-1.94677 -1.75256,-0.67252 -2.54304,-0.34237 -1.85311,0.77397 1.15651,1.87127 4.90939,2.76779 4.90939,1.1728 z"
       id="path1119"
       transform="scale(0.26458333)" />
    <path
       style="opacity:0.01;fill:#00c800;fill-opacity:0;stroke:#00c800;stroke-width:7.87733;stroke-miterlimit:4;stroke-dasharray:none;stroke-opacity:1"
       d="m 386.01906,292.03381 c 0,-0.45732 0.88302,-2.48143 1.96227,-4.49803 2.4677,-4.61092 0.57453,-9.85986 -3.55621,-9.85986 -1.72803,0 -6.04475,2.81357 -9.5927,6.25238 -6.2998,6.10601 -6.54403,6.16802 -10.43275,2.64878 -7.15753,-6.47748 -3.89609,-10.19232 12.26506,-13.97017 6.24204,-1.45914 6.87731,-3.64774 1.96934,-6.78462 -3.01932,-1.92976 -2.88671,-2.08397 1.07019,-1.24453 2.4841,0.52699 7.01796,0.24076 10.07526,-0.63606 3.0573,-0.87682 6.59363,-0.95462 7.8585,-0.17288 2.60696,1.61119 0.83082,7.9991 -2.22412,7.9991 -1.09988,0 -0.78351,1.49523 0.70303,3.32272 2.3617,2.90339 2.27582,3.16278 -0.68047,2.05534 -1.86079,-0.69705 -3.99167,-0.28295 -4.73527,0.92023 -0.74361,1.20318 -0.54067,1.68616 0.45098,1.07329 0.99165,-0.61287 3.51799,0.13972 5.6141,1.67243 2.80912,2.05408 3.23219,3.36566 1.60917,4.98868 -1.21106,1.21105 -1.82063,3.20168 -1.3546,4.42362 0.50363,1.3205 -1.55586,2.30675 -5.07722,2.43138 -3.25851,0.11534 -5.92456,-0.16447 -5.92456,-0.6218 z m -15.75466,-7.25453 c 0,-0.42568 -1.37533,-1.30173 -3.05628,-1.94677 -1.75256,-0.67252 -2.54304,-0.34237 -1.85311,0.77397 1.15651,1.87127 4.90939,2.76779 4.90939,1.1728 z"
       id="path1121"
       transform="scale(0.26458333)" />
    <path
       style="opacity:0.01;fill:#00c800;fill-opacity:0;stroke:#00c800;stroke-width:7.87733;stroke-miterlimit:4;stroke-dasharray:none;stroke-opacity:1"
       d="m 386.89947,290.19922 c 0.59891,-1.47215 1.58299,-3.89167 2.18685,-5.37671 0.60386,-1.48504 -0.40537,-4.20336 -2.24272,-6.04072 -3.1413,-3.1413 -3.79138,-2.9005 -10.89438,4.0354 -7.39359,7.21964 -7.63833,7.29949 -11.54262,3.76616 -7.0903,-6.41664 -4.69519,-9.30606 11.53367,-13.91402 3.61245,-1.0257 4.0653,-1.72841 1.96933,-3.05588 -2.25928,-1.43091 -2.21983,-1.73918 0.23213,-1.81392 2.35763,-0.0719 2.26915,-0.48918 -0.43827,-2.06709 -2.49971,-1.45686 -5.52937,-0.88679 -11.5145,2.1666 -4.46723,2.27901 -8.5366,3.72928 -9.04305,3.22283 -2.11352,-2.11352 2.14227,-15.80442 6.53585,-21.0259 13.30593,-15.81321 33.88841,-9.6983 40.08532,11.90906 2.90472,10.12813 0.82892,15.08844 -6.14071,14.67381 -3.21891,-0.1915 -6.39811,0.53454 -7.06488,1.6134 -0.66678,1.07887 -0.40097,1.46013 0.59068,0.84726 0.99165,-0.61287 3.51799,0.13972 5.6141,1.67243 2.80912,2.05408 3.23219,3.36566 1.60917,4.98868 -1.21106,1.21105 -1.82063,3.20168 -1.3546,4.42362 0.50554,1.32552 -1.58454,2.3084 -5.18148,2.43666 -4.35453,0.15528 -5.72641,-0.52837 -4.93989,-2.46167 z m -16.63507,-5.41994 c 0,-0.42568 -1.37533,-1.30173 -3.05628,-1.94677 -1.75256,-0.67252 -2.54304,-0.34237 -1.85311,0.77397 1.15651,1.87127 4.90939,2.76779 4.90939,1.1728 z m 29.53999,-19.1518 c 0,-1.08314 -0.8862,-1.42163 -1.96933,-0.75222 -1.08313,0.66941 -1.96933,0.24743 -1.96933,-0.93773 0,-1.52018 -1.12192,-1.55441 -3.8092,-0.11623 -4.80677,2.57251 -6.6152,2.59731 -5.0528,0.0693 0.66941,-1.08313 -0.092,-1.96933 -1.69204,-1.96933 -1.60004,0 -4.31094,-0.53791 -6.02423,-1.19536 -1.71328,-0.65745 -3.11506,-0.3562 -3.11506,0.66945 0,2.54227 14.79967,7.25657 17.51411,5.57896 1.19857,-0.74076 2.17922,-0.35603 2.17922,0.85495 0,1.21098 0.8862,1.65408 1.96933,0.98466 1.08313,-0.66941 1.96933,-2.10331 1.96933,-3.18644 z"
       id="path1123"
       transform="scale(0.26458333)" />
    <path
       style="opacity:0.01;fill:#00c800;fill-opacity:0;stroke:#00c800;stroke-width:7.87733;stroke-miterlimit:4;stroke-dasharray:none;stroke-opacity:1"
       d="m 364.3564,290.44986 c 0,-1.63939 -1.10775,-4.85688 -2.46166,-7.14996 -1.97558,-3.34597 -1.96863,-4.3476 0.0352,-5.07244 1.37326,-0.49676 3.74446,-2.15083 5.26934,-3.67571 1.52488,-1.52488 4.16766,-2.23714 5.87284,-1.58281 2.33228,0.89499 3.10032,-0.0821 3.10032,-3.94432 0,-6.18045 -0.0623,-6.18697 -10.11596,-1.05798 -4.39434,2.24183 -8.45331,3.61245 -9.01994,3.04583 -2.22535,-2.22536 1.82945,-15.19324 6.47805,-20.71778 13.46946,-16.00755 34.01759,-10.02965 40.25253,11.71034 2.90472,10.12813 0.82892,15.08844 -6.14071,14.67381 -3.21891,-0.1915 -6.39811,0.53454 -7.06488,1.6134 -0.66678,1.07887 -0.40097,1.46013 0.59068,0.84726 0.99165,-0.61287 3.51799,0.13972 5.6141,1.67243 2.80912,2.05408 3.23219,3.36566 1.60917,4.98868 -1.21106,1.21105 -1.82063,3.20168 -1.3546,4.42362 0.50554,1.32552 -1.58454,2.3084 -5.18148,2.43666 -3.70843,0.13224 -5.68243,-0.62573 -5.12882,-1.96933 3.72313,-9.03601 3.71167,-9.32425 -0.41355,-10.40301 -2.29476,-0.6001 -3.67444,-2.09808 -3.06595,-3.32885 0.60849,-1.23078 -2.86865,1.97167 -7.72698,7.11655 -9.50025,10.06059 -11.14766,11.00248 -11.14766,6.37361 z m 5.908,-5.67058 c 0,-0.42568 -1.37533,-1.30173 -3.05628,-1.94677 -1.75256,-0.67252 -2.54304,-0.34237 -1.85311,0.77397 1.15651,1.87127 4.90939,2.76779 4.90939,1.1728 z m 28.74338,-11.3463 c 0.8706,-1.40866 0.54022,-1.73905 -0.86844,-0.86845 -1.25049,0.77285 -2.27361,0.51898 -2.27361,-0.56416 0,-1.08313 0.8862,-2.51703 1.96933,-3.18645 1.08313,-0.66941 1.96933,-2.10331 1.96933,-3.18644 0,-1.08314 -0.8862,-1.42163 -1.96933,-0.75222 -1.08313,0.66941 -1.96933,0.4321 -1.96933,-0.52737 0,-0.95946 -2.73649,-1.34285 -6.08108,-0.85197 -5.47166,0.80307 -5.7776,1.19599 -3.05284,3.92076 2.62179,2.62178 3.48749,2.65445 6.4498,0.24341 3.04908,-2.48167 3.27353,-2.39031 2.06178,0.83922 -2.05691,5.48204 0.97203,9.45181 3.76439,4.93367 z"
       id="path1125"
       transform="scale(0.26458333)" />
    <path
       style="opacity:0.01;fill:#00c800;fill-opacity:0;stroke:#00c800;stroke-width:7.87733;stroke-miterlimit:4;stroke-dasharray:none;stroke-opacity:1"
       d="m 386.89947,290.19922 c 0.59891,-1.47215 1.58299,-3.89167 2.18685,-5.37671 0.60386,-1.48504 -0.40537,-4.20336 -2.24272,-6.04072 -3.1413,-3.1413 -3.79138,-2.9005 -10.89439,4.0354 -7.39358,7.21964 -7.63832,7.29949 -11.54261,3.76616 -7.1648,-6.48406 -3.90795,-10.19744 12.25813,-13.97644 6.23011,-1.45635 6.905,-3.71448 1.96934,-6.58924 -2.7798,-1.61909 -2.86455,-2.01889 -0.43819,-2.06719 1.65447,-0.0329 5.01579,1.34633 7.46959,3.06504 3.75399,2.62939 4.97493,2.70746 7.69958,0.49233 2.82766,-2.29889 3.06226,-2.16411 1.85075,1.06335 -0.78598,2.09387 -0.30558,5.02804 1.10828,6.76905 2.10766,2.59535 1.96967,2.87608 -0.88762,1.80573 -1.86079,-0.69705 -3.99167,-0.28295 -4.73527,0.92023 -0.74361,1.20318 -0.54067,1.68616 0.45098,1.07329 0.99165,-0.61287 3.51799,0.13972 5.6141,1.67243 2.80912,2.05408 3.23219,3.36566 1.60917,4.98868 -1.21106,1.21105 -1.82063,3.20168 -1.3546,4.42362 0.50554,1.32552 -1.58454,2.3084 -5.18148,2.43666 -4.35453,0.15526 -5.72641,-0.52837 -4.93989,-2.46167 z m -16.63507,-5.41994 c 0,-0.42568 -1.37533,-1.30173 -3.05628,-1.94677 -1.75256,-0.67252 -2.54304,-0.34237 -1.85311,0.77397 1.15651,1.87127 4.90939,2.76779 4.90939,1.1728 z"
       id="path1127"
       transform="scale(0.26458333)" />
    <path
       style="opacity:0.01;fill:#00c800;fill-opacity:0;stroke:#00c800;stroke-width:7.87733;stroke-miterlimit:4;stroke-dasharray:none;stroke-opacity:1"
       d="m 386.89947,290.19922 c 0.59891,-1.47215 1.58299,-3.89167 2.18685,-5.37671 0.60386,-1.48504 -0.40537,-4.20336 -2.24272,-6.04072 -3.1413,-3.1413 -3.79138,-2.9005 -10.89438,4.0354 -7.39359,7.21964 -7.63833,7.29949 -11.54262,3.76616 -7.00251,-6.33718 -5.31763,-8.54282 10.41362,-13.63226 1.96413,-0.63544 3.01958,-2.04781 2.34544,-3.13859 -0.67414,-1.09078 -0.0657,-2.01019 1.35218,-2.04313 1.61631,-0.0375 1.31253,-0.79734 -0.81438,-2.03693 -2.49971,-1.45686 -5.52937,-0.88679 -11.5145,2.1666 -4.46723,2.27901 -8.58583,3.68005 -9.15246,3.11343 -2.22535,-2.22536 1.82945,-15.19324 6.47805,-20.71778 13.46946,-16.00755 34.01759,-10.02965 40.25253,11.71034 2.90472,10.12813 0.82892,15.08844 -6.14071,14.67381 -3.21891,-0.1915 -6.39811,0.53454 -7.06488,1.6134 -0.66678,1.07887 -0.40097,1.46013 0.59068,0.84726 0.99165,-0.61287 3.51799,0.13972 5.6141,1.67243 2.80912,2.05408 3.23219,3.36566 1.60917,4.98868 -1.21106,1.21105 -1.82063,3.20168 -1.3546,4.42362 0.50554,1.32552 -1.58454,2.3084 -5.18148,2.43666 -4.35453,0.15528 -5.72641,-0.52837 -4.93989,-2.46167 z m -16.63507,-5.41994 c 0,-0.42568 -1.37533,-1.30173 -3.05628,-1.94677 -1.75256,-0.67252 -2.54304,-0.34237 -1.85311,0.77397 1.15651,1.87127 4.90939,2.76779 4.90939,1.1728 z m 29.53999,-19.1518 c 0,-1.08314 -0.8862,-1.42163 -1.96933,-0.75222 -1.08313,0.66941 -1.96933,0.24743 -1.96933,-0.93773 0,-1.52018 -1.12192,-1.55441 -3.8092,-0.11623 -4.80677,2.57251 -6.6152,2.59731 -5.0528,0.0693 0.66941,-1.08313 -0.092,-1.96933 -1.69204,-1.96933 -1.60004,0 -4.31094,-0.53791 -6.02423,-1.19536 -1.71328,-0.65745 -3.11506,-0.3562 -3.11506,0.66945 0,2.54227 14.79967,7.25657 17.51411,5.57896 1.19857,-0.74076 2.17922,-0.35603 2.17922,0.85495 0,1.21098 0.8862,1.65408 1.96933,0.98466 1.08313,-0.66941 1.96933,-2.10331 1.96933,-3.18644 z"
       id="path1129"
       transform="scale(0.26458333)" />
    <path
       style="opacity:0.01;fill:#00c800;fill-opacity:0;stroke:#00c800;stroke-width:7.87733;stroke-miterlimit:4;stroke-dasharray:none;stroke-opacity:1"
       d="m 386.89947,290.19922 c 0.59891,-1.47215 1.64713,-4.0588 2.32937,-5.74811 0.83848,-2.07617 -0.11158,-3.42505 -2.93185,-4.16256 -2.36455,-0.61835 -3.6299,-2.06065 -2.92043,-3.32885 0.68852,-1.23078 -2.40056,1.24326 -6.86462,5.49787 -7.94678,7.57393 -8.19987,7.66018 -12.10534,4.12578 -7.1648,-6.48406 -3.90795,-10.19744 12.25813,-13.97644 6.39358,-1.49457 6.91694,-3.83562 1.505,-6.732 -3.03558,-1.62459 -5.72236,-1.16868 -12.00684,2.03742 -4.45289,2.2717 -8.51053,3.71599 -9.01698,3.20954 -2.11352,-2.11352 2.14227,-15.80442 6.53585,-21.0259 13.30593,-15.81321 33.88841,-9.6983 40.08532,11.90906 2.90472,10.12813 0.82892,15.08844 -6.14071,14.67381 -3.21891,-0.1915 -6.39811,0.53454 -7.06488,1.6134 -0.66678,1.07887 -0.40097,1.46013 0.59068,0.84726 0.99165,-0.61287 3.51799,0.13972 5.6141,1.67243 2.80912,2.05408 3.23219,3.36566 1.60917,4.98868 -1.21106,1.21105 -1.82063,3.20168 -1.3546,4.42362 0.50554,1.32552 -1.58454,2.3084 -5.18148,2.43666 -4.35453,0.15528 -5.72641,-0.52837 -4.93989,-2.46167 z m -16.63507,-5.41994 c 0,-0.42568 -1.37533,-1.30173 -3.05628,-1.94677 -1.75256,-0.67252 -2.54304,-0.34237 -1.85311,0.77397 1.15651,1.87127 4.90939,2.76779 4.90939,1.1728 z m 28.74338,-11.3463 c 0.8706,-1.40866 0.54022,-1.73905 -0.86844,-0.86845 -1.25049,0.77285 -2.27361,0.51898 -2.27361,-0.56416 0,-1.08313 0.8862,-2.51703 1.96933,-3.18645 1.08313,-0.66941 1.96933,-2.10331 1.96933,-3.18644 0,-1.08314 -0.8862,-1.42163 -1.96933,-0.75222 -1.08313,0.66941 -1.96933,0.22631 -1.96933,-0.98467 0,-1.21098 -0.8862,-1.65408 -1.96934,-0.98466 -1.08313,0.66941 -1.96933,2.10331 -1.96933,3.18644 0,1.08314 0.8862,1.42164 1.96933,0.75222 1.08314,-0.66941 1.96934,-0.33091 1.96934,0.75222 0,1.08313 -0.98082,2.57551 -2.17959,3.31639 -1.5194,0.93904 -1.37027,1.85986 0.49234,3.04007 3.38077,2.14216 3.16977,2.16489 4.8293,-0.52029 z M 387.581,262.93968 c -2.1624,-1.73938 -11.4086,-2.71221 -11.4086,-1.20034 0,2.2023 5.81355,3.75999 9.43926,2.52917 1.40063,-0.47547 2.28683,-1.07345 1.96934,-1.32883 z"
       id="path1131"
       transform="scale(0.26458333)" />
    <path
       style="opacity:0.01;fill:#00c800;fill-opacity:0;stroke:#00c800;stroke-width:7.87733;stroke-miterlimit:4;stroke-dasharray:none;stroke-opacity:1"
       d="m 386.89947,290.19922 c 0.59891,-1.47215 1.58299,-3.89167 2.18685,-5.37671 0.60386,-1.48504 -0.40537,-4.20336 -2.24272,-6.04072 -3.1413,-3.1413 -3.79138,-2.9005 -10.89438,4.0354 -7.39359,7.21964 -7.63833,7.29949 -11.54262,3.76616 -5.5252,-5.00024 -4.99354,-8.01344 1.91914,-10.87676 3.24939,-1.34595 5.90799,-3.22586 5.90799,-4.17759 0,-0.95172 1.7724,-1.73041 3.93867,-1.73041 2.16627,0 3.93867,-0.79139 3.93867,-1.75863 0,-3.86938 -6.56332,-3.8951 -14.09009,-0.0552 -4.37484,2.23187 -8.41785,3.59435 -8.98448,3.02773 -2.22535,-2.22536 1.82945,-15.19324 6.47805,-20.71778 13.46946,-16.00755 34.01759,-10.02965 40.25253,11.71034 2.90472,10.12813 0.82892,15.08844 -6.14071,14.67381 -3.21891,-0.1915 -6.39811,0.53454 -7.06488,1.6134 -0.66678,1.07887 -0.40097,1.46013 0.59068,0.84726 0.99165,-0.61287 3.51799,0.13972 5.6141,1.67243 2.80912,2.05408 3.23219,3.36566 1.60917,4.98868 -1.21106,1.21105 -1.82063,3.20168 -1.3546,4.42362 0.50554,1.32552 -1.58454,2.3084 -5.18148,2.43666 -4.35453,0.15528 -5.72641,-0.52837 -4.93989,-2.46167 z m -16.63507,-5.41994 c 0,-0.42568 -1.37533,-1.30173 -3.05628,-1.94677 -1.75256,-0.67252 -2.54304,-0.34237 -1.85311,0.77397 1.15651,1.87127 4.90939,2.76779 4.90939,1.1728 z m 28.72975,-15.80932 c 0.27992,-2.62547 -0.64539,-5.21655 -2.05625,-5.75795 -1.835,-0.70416 -2.41416,0.79393 -2.03458,5.26278 0.68151,8.02358 0.71888,8.13177 2.27215,6.57851 0.72035,-0.72036 1.53876,-3.45786 1.81868,-6.08334 z m -7.06709,-0.89957 c 0,-2.59899 -4.27321,-5.45073 -10.339,-6.89977 -7.34617,-1.75491 -6.76687,1.01685 1.02729,4.91517 7.76079,3.88163 9.31171,4.21218 9.31171,1.9846 z"
       id="path1133"
       transform="scale(0.26458333)" />
    <path
       style="opacity:0.01;fill:#00c800;fill-opacity:0;stroke:#00c800;stroke-width:7.87733;stroke-miterlimit:4;stroke-dasharray:none;stroke-opacity:1"
       d="m 386.89947,290.19922 c 0.59891,-1.47215 1.58299,-3.89167 2.18685,-5.37671 0.60386,-1.48504 -0.40537,-4.20336 -2.24272,-6.04072 -3.1413,-3.1413 -3.79138,-2.9005 -10.89438,4.0354 -7.39359,7.21964 -7.63833,7.29949 -11.54262,3.76616 -5.17762,-4.68568 -5.04594,-7.79574 0.44214,-10.44253 2.43705,-1.17535 3.27094,-2.19697 1.8531,-2.27028 -1.42268,-0.0736 -1.95293,-1.14449 -1.18326,-2.38983 0.98149,-1.58808 -0.15085,-1.86866 -3.82244,-0.94715 -4.73587,1.18863 -5.21707,0.78787 -5.21707,-4.34488 0,-7.87516 7.52964,-18.35857 16.26127,-22.64034 6.17483,-3.02798 8.44416,-3.24093 14.22088,-1.33444 8.07226,2.66409 13.98641,9.50867 16.69627,19.32294 2.95654,10.70772 1.0232,15.56166 -6.03112,15.142 -3.21891,-0.1915 -6.39811,0.53454 -7.06488,1.6134 -0.66678,1.07887 -0.40097,1.46013 0.59068,0.84726 0.99165,-0.61287 3.51799,0.13972 5.6141,1.67243 2.80912,2.05408 3.23219,3.36566 1.60917,4.98868 -1.21106,1.21105 -1.82063,3.20168 -1.3546,4.42362 0.50554,1.32552 -1.58454,2.3084 -5.18148,2.43666 -4.35453,0.15528 -5.72641,-0.52837 -4.93989,-2.46167 z m -16.63507,-5.41994 c 0,-0.42568 -1.37533,-1.30173 -3.05628,-1.94677 -1.75256,-0.67252 -2.54304,-0.34237 -1.85311,0.77397 1.15651,1.87127 4.90939,2.76779 4.90939,1.1728 z m 29.53999,-19.1518 c 0,-1.08314 -0.81051,-1.46841 -1.80113,-0.85617 -0.99062,0.61223 -2.15729,0.0447 -2.59258,-1.26121 -0.49087,-1.4726 -1.29412,-1.06445 -2.11498,1.07468 -0.79136,2.06226 -0.54077,2.96527 0.62325,2.24587 1.07073,-0.66174 1.94678,-0.21237 1.94678,0.99861 0,1.21098 0.8862,1.65408 1.96933,0.98466 1.08313,-0.66941 1.96933,-2.10331 1.96933,-3.18644 z m -11.81599,0.23245 c 0,-1.08314 -1.55085,-1.95577 -3.44634,-1.93918 -2.94523,0.0258 -3.01681,0.30773 -0.49233,1.93918 3.71655,2.40181 3.93867,2.40181 3.93867,0 z M 368.54627,250.5976 c 2.44959,-3.12347 2.37994,-3.19313 -0.74353,-0.74354 -3.28042,2.57268 -4.32363,4.18987 -2.70281,4.18987 0.40895,0 1.9598,-1.55085 3.44634,-3.44633 z"
       id="path1135"
       transform="scale(0.26458333)" />
    <path
       style="opacity:0.01;fill:#00c800;fill-opacity:0;stroke:#00c800;stroke-width:7.87733;stroke-miterlimit:4;stroke-dasharray:none;stroke-opacity:1"
       d="m 386.89947,290.19922 c 0.59891,-1.47215 1.64713,-4.0588 2.32937,-5.74811 0.83848,-2.07617 -0.11158,-3.42505 -2.93185,-4.16256 -2.36455,-0.61835 -3.6299,-2.06065 -2.92043,-3.32885 0.68852,-1.23078 -2.40056,1.24326 -6.86462,5.49787 -7.94678,7.57393 -8.19987,7.66018 -12.10534,4.12578 -5.0658,-4.58449 -5.08463,-8.29423 -0.0502,-9.89209 2.16627,-0.68755 3.93867,-2.12887 3.93867,-3.20294 0,-1.07406 0.66465,-1.56149 1.477,-1.08318 2.13911,1.25952 10.339,-2.15219 10.339,-4.30173 0,-3.92861 -6.51445,-3.98348 -14.09009,-0.11868 -4.37484,2.23188 -8.41785,3.59436 -8.98448,3.02774 -2.22535,-2.22536 1.82945,-15.19324 6.47805,-20.71778 13.46946,-16.00755 34.01759,-10.02965 40.25253,11.71034 2.90472,10.12813 0.82892,15.08844 -6.14071,14.67381 -3.21891,-0.1915 -6.39811,0.53454 -7.06488,1.6134 -0.66678,1.07887 -0.40097,1.46013 0.59068,0.84726 0.99165,-0.61287 3.51799,0.13972 5.6141,1.67243 2.80912,2.05408 3.23219,3.36566 1.60917,4.98868 -1.21106,1.21105 -1.82063,3.20168 -1.3546,4.42362 0.50554,1.32552 -1.58454,2.3084 -5.18148,2.43666 -4.35453,0.15528 -5.72641,-0.52837 -4.93989,-2.46167 z m -16.63507,-5.41994 c 0,-0.42568 -1.37533,-1.30173 -3.05628,-1.94677 -1.75256,-0.67252 -2.54304,-0.34237 -1.85311,0.77397 1.15651,1.87127 4.90939,2.76779 4.90939,1.1728 z m 17.724,-11.04202 c 0,-1.08314 -0.93851,-1.96934 -2.08556,-1.96934 -1.14706,0 -1.53786,0.8862 -0.86844,1.96934 0.66941,1.08313 1.60791,1.96933 2.08555,1.96933 0.47765,0 0.86845,-0.8862 0.86845,-1.96933 z m 11.01938,-0.30428 c 0.8706,-1.40866 0.54022,-1.73905 -0.86844,-0.86845 -3.03465,1.87552 -2.90984,-1.34198 0.17159,-4.42341 4.05906,-4.05906 -2.48084,-6.79806 -6.83123,-2.86101 -3.20856,2.90371 -3.4913,2.89565 -3.4913,-0.0996 0,-1.79257 -1.25682,-3.25922 -2.79294,-3.25922 -1.53611,0 -4.19471,-0.53791 -5.908,-1.19536 -6.32086,-2.42555 -2.74539,2.29336 4.21257,5.55973 5.73217,2.69093 7.80095,2.8916 10.15125,0.98466 2.46654,-2.00124 2.72831,-1.79916 1.59211,1.22902 -2.05691,5.48204 0.97203,9.45181 3.76439,4.93367 z"
       id="path1137"
       transform="scale(0.26458333)" />
    <path
       style="opacity:0.01;fill:#00c800;fill-opacity:0;stroke:#00c800;stroke-width:7.87733;stroke-miterlimit:4;stroke-dasharray:none;stroke-opacity:1"
       d="m 394.54015,908.31607 c -8.97905,-1.44331 -15.72355,-11.68181 -14.56885,-22.11632 0.86885,-7.85151 1.9614,-8.12992 11.03561,-2.81209 4.93647,2.89297 9.44075,4.7946 10.00951,4.22586 1.59323,-1.59325 -7.64186,-7.46366 -133.41454,-84.80661 l -117.43251,-72.21424 6.85742,-12.91411 c 3.77158,-7.10276 7.28238,-12.48916 7.80177,-11.96977 0.51939,0.51939 -0.0855,2.86854 -1.3441,5.22034 -1.25865,2.3518 -1.77044,4.79401 -1.13732,5.42713 0.63313,0.63312 -0.0831,3.0348 -1.5916,5.33707 -2.59151,3.95514 -2.40188,4.19519 3.43943,4.35382 4.34033,0.11786 4.81377,-0.10278 1.58911,-0.7406 -4.36497,-0.86338 -4.42653,-1.09251 -1.23963,-4.61398 3.27869,-3.62291 3.42507,-3.617 6.56856,0.26503 3.20835,3.96215 3.31486,3.95351 50.47294,-4.09105 25.9918,-4.43387 50.35951,-8.486 54.15048,-9.00474 17.31237,-2.36895 28.437,-4.99466 29.67957,-7.00519 0.84237,-1.36297 1.62874,-1.44699 2.0837,-0.22262 0.45188,1.21612 15.00882,-0.4971 38.14804,-4.48969 20.57953,-3.55092 35.03258,-6.55108 32.11789,-6.66703 -5.70018,-0.22675 -8.50388,-2.90327 -6.47686,-6.18305 0.79608,-1.28809 3.90694,-0.49485 8.48589,2.16383 5.64462,3.27743 6.28802,3.39942 2.93551,0.55658 -3.63854,-3.08539 -3.87297,-4.01972 -1.53671,-6.12435 2.26452,-2.04003 3.34702,-1.58277 6.06184,2.56057 1.82768,2.78937 4.49526,4.58737 5.96773,4.02233 1.46448,-0.56197 2.69905,0.0582 2.74346,1.37809 0.0445,1.31992 3.57424,-1.46358 7.84405,-6.18557 l 7.76327,-8.58542 2.00263,5.2673 c 1.10143,2.89701 2.00262,6.5389 2.00262,8.09309 0,2.36239 6.58127,2.82579 40.1324,2.82579 h 40.1324 l 2.58759,-6.24699 c 1.42317,-3.43584 2.91746,-5.25737 3.32064,-4.04784 0.40317,1.20953 -0.18787,3.91975 -1.31326,6.02272 -1.99665,3.73076 -0.62747,3.85904 56.40649,5.2848 37.99727,0.94987 58.67938,0.78151 59.10027,-0.48112 0.35609,-1.0683 1.77437,-3.48351 3.15172,-5.36715 2.32919,-3.18534 2.97824,-3.03937 9.28332,2.08788 6.09319,4.95496 6.36539,5.02414 2.69044,0.68386 -6.26344,-7.39744 -4.29614,-11.49017 4.67122,-9.71793 11.31633,2.23647 13.64921,3.71609 17.0033,10.78431 3.76883,7.9422 1.94509,14.27031 -5.88845,20.43217 -5.77922,4.54594 -14.56652,5.43528 -20.79074,2.10418 -3.62347,-1.93921 -3.17895,-2.67596 6.04595,-10.02096 5.47634,-4.36032 9.45776,-8.73562 8.84759,-9.72289 -1.59766,-2.58508 -2.92889,-2.20808 -2.35395,0.66663 0.27555,1.37775 -1.19717,2.31256 -3.34471,2.12303 -2.11036,-0.18624 -6.38781,1.8077 -9.50542,4.431 -7.14582,6.01281 -8.92437,5.98669 -10.46551,-0.15369 l -1.23567,-4.92333 -30.8035,-0.007 c -16.94191,-0.004 -43.21029,-0.57395 -58.37416,-1.26673 l -27.57065,-1.2596 -5.8545,12.25866 c -3.21995,6.74227 -6.15058,11.37037 -6.51248,10.28467 -0.36191,-1.0857 1.62291,-6.47514 4.41065,-11.97653 l 5.06867,-10.00252 h -40.3352 c -38.24974,0 -40.44364,0.20259 -42.43221,3.91828 -2.72532,5.09231 -12.08003,9.86705 -19.33162,9.86705 -3.15206,0 -9.08516,-2.27621 -13.18472,-5.05825 l -7.45375,-5.05824 -30.73073,5.23827 c -16.9019,2.88104 -33.38933,5.64264 -36.63873,6.13689 -19.10961,2.90664 -27.49545,4.90375 -28.68713,6.83192 -0.79276,1.28273 -1.81401,1.418 -2.4868,0.32941 -0.67501,-1.09218 -20.89848,1.41816 -49.47949,6.14189 -46.62769,7.70641 -48.33787,8.14754 -48.33787,12.46825 0,5.12694 -0.62298,5.33831 -6.48588,2.20058 -4.1611,-2.22696 -4.16933,-2.31309 -0.36286,-3.80025 3.85726,-1.50701 3.85684,-1.52165 -0.0439,-1.52165 -14.66632,0 -9.67132,3.5213 106.58399,75.13794 64.62279,39.80951 117.82534,72.05157 118.22787,71.64903 0.40255,-0.40255 -1.0529,-3.0009 -3.23435,-5.77416 -4.51672,-5.74208 -5.26225,-8.93288 -1.32337,-5.6639 1.45356,1.20636 3.22596,1.61027 3.93866,0.89758 0.71269,-0.71269 1.2958,-0.2619 1.2958,1.00175 0,1.26366 2.1632,2.29756 4.80711,2.29756 6.15198,0 7.86939,2.79682 4.05789,6.60833 -1.85002,1.85003 -2.23177,3.45411 -1.00277,4.21366 1.09144,0.67456 1.98444,0.36598 1.98444,-0.6857 0,-1.05168 2.37241,-1.65172 5.27206,-1.33342 5.39042,0.59173 10.4826,5.61727 10.4826,10.34544 0,4.03662 -5.22395,15.64446 -7.74054,17.1998 -3.88701,2.40231 -12.77806,4.20571 -17.21703,3.4922 z m 14.12624,-26.05498 c 1.96045,-2.16627 3.12135,-3.93867 2.57979,-3.93867 -0.54157,0 -2.58867,1.7724 -4.54912,3.93867 -1.96045,2.16626 -3.12136,3.93866 -2.57979,3.93866 0.54157,0 2.58867,-1.7724 4.54912,-3.93866 z M 382.57273,693.87022 c -1.35392,-0.54632 -3.56941,-0.54632 -4.92333,0 -1.35392,0.54632 -0.24617,0.9933 2.46167,0.9933 2.70783,0 3.81558,-0.44698 2.46166,-0.9933 z m 10.79031,-1.85489 c -0.65441,-0.65439 -2.35296,-0.72435 -3.77456,-0.15548 -1.571,0.62867 -1.10436,1.09531 1.18981,1.18981 2.07599,0.0855 3.23914,-0.37994 2.58475,-1.03433 z"
       id="path1139"
       transform="scale(0.26458333)" />
    <path
       style="opacity:0.01;fill:#00c800;fill-opacity:0;stroke:#00c800;stroke-width:7.87733;stroke-miterlimit:4;stroke-dasharray:none;stroke-opacity:1"
       d="m 386.89947,290.19922 c 0.59891,-1.47215 1.64713,-4.0588 2.32937,-5.74811 0.83848,-2.07617 -0.11158,-3.42505 -2.93185,-4.16256 -2.36455,-0.61835 -3.6299,-2.06065 -2.92043,-3.32885 0.68852,-1.23078 -2.40056,1.24326 -6.86462,5.49787 -7.94678,7.57393 -8.19987,7.66018 -12.10534,4.12578 -7.10882,-6.43339 -4.7221,-9.28719 11.67395,-13.95854 5.29365,-1.5082 9.93851,-5.41713 9.93851,-8.36386 0,-2.46405 -8.41058,-4.64081 -9.7762,-2.53019 -1.53667,2.37498 -18.01145,10.47662 -19.09695,9.39111 -2.11352,-2.11352 2.14227,-15.80442 6.53585,-21.0259 13.30593,-15.81321 33.88841,-9.6983 40.08532,11.90906 2.90472,10.12813 0.82892,15.08844 -6.14071,14.67381 -3.21891,-0.1915 -6.39811,0.53454 -7.06488,1.6134 -0.66678,1.07887 -0.40097,1.46013 0.59068,0.84726 0.99165,-0.61287 3.51799,0.13972 5.6141,1.67243 2.80912,2.05408 3.23219,3.36566 1.60917,4.98868 -1.21106,1.21105 -1.82063,3.20168 -1.3546,4.42362 0.50554,1.32552 -1.58454,2.3084 -5.18148,2.43666 -4.35453,0.15528 -5.72641,-0.52837 -4.93989,-2.46167 z m -16.63507,-5.41994 c 0,-0.42568 -1.37533,-1.30173 -3.05628,-1.94677 -1.75256,-0.67252 -2.54304,-0.34237 -1.85311,0.77397 1.15651,1.87127 4.90939,2.76779 4.90939,1.1728 z m 17.724,-11.04202 c 0,-1.08314 -0.93851,-1.96934 -2.08556,-1.96934 -1.14706,0 -1.53786,0.8862 -0.86844,1.96934 0.66941,1.08313 1.60791,1.96933 2.08555,1.96933 0.47765,0 0.86845,-0.8862 0.86845,-1.96933 z m 11.01938,-0.30428 c 0.8706,-1.40866 0.54022,-1.73905 -0.86844,-0.86845 -1.25049,0.77285 -2.27361,0.51898 -2.27361,-0.56416 0,-1.08313 0.8862,-2.51703 1.96933,-3.18645 1.08313,-0.66941 1.96933,-2.10331 1.96933,-3.18644 0,-1.08314 -0.8862,-1.42163 -1.96933,-0.75222 -1.08313,0.66941 -1.96933,0.10138 -1.96933,-1.26231 0,-1.89658 -0.54297,-1.93646 -2.30978,-0.16964 -1.75152,1.75152 -1.76172,3.51264 -0.0422,7.28653 2.53251,5.55827 3.45038,6.00987 5.49405,2.70314 z"
       id="path1141"
       transform="scale(0.26458333)" />
    <path
       style="opacity:0.01;fill:#00c800;fill-opacity:0;stroke:#00c800;stroke-width:7.87733;stroke-miterlimit:4;stroke-dasharray:none;stroke-opacity:1"
       d="m 386.89947,290.19922 c 0.59891,-1.47215 1.58299,-3.89167 2.18685,-5.37671 0.60386,-1.48504 -0.40537,-4.20336 -2.24272,-6.04072 -3.1413,-3.1413 -3.79138,-2.9005 -10.89439,4.0354 -7.39358,7.21964 -7.63832,7.29949 -11.54261,3.76616 -7.1648,-6.48406 -3.90795,-10.19744 12.25813,-13.97644 6.23011,-1.45635 6.905,-3.71448 1.96934,-6.58924 -2.7798,-1.61909 -2.86455,-2.01889 -0.43819,-2.06719 1.65447,-0.0329 5.01579,1.34633 7.46959,3.06504 3.75399,2.62939 4.97493,2.70746 7.69958,0.49233 2.82766,-2.29889 3.06226,-2.16411 1.85075,1.06335 -0.78598,2.09387 -0.30558,5.02804 1.10828,6.76905 2.10766,2.59535 1.96967,2.87608 -0.88762,1.80573 -1.86079,-0.69705 -3.99167,-0.28295 -4.73527,0.92023 -0.74361,1.20318 -0.54067,1.68616 0.45098,1.07329 0.99165,-0.61287 3.51799,0.13972 5.6141,1.67243 2.80912,2.05408 3.23219,3.36566 1.60917,4.98868 -1.21106,1.21105 -1.82063,3.20168 -1.3546,4.42362 0.50554,1.32552 -1.58454,2.3084 -5.18148,2.43666 -4.35453,0.15526 -5.72641,-0.52837 -4.93989,-2.46167 z m -16.63507,-5.41994 c 0,-0.42568 -1.37533,-1.30173 -3.05628,-1.94677 -1.75256,-0.67252 -2.54304,-0.34237 -1.85311,0.77397 1.15651,1.87127 4.90939,2.76779 4.90939,1.1728 z m 17.724,-11.04202 c 0,-1.08314 -0.93851,-1.96934 -2.08556,-1.96934 -1.14706,0 -1.53786,0.8862 -0.86844,1.96934 0.66941,1.08313 1.60791,1.96933 2.08555,1.96933 0.47765,0 0.86845,-0.8862 0.86845,-1.96933 z"
       id="path1143"
       transform="scale(0.26458333)" />
    <path
       style="opacity:0.01;fill:#00c800;fill-opacity:0;stroke:#00c800;stroke-width:7.87733;stroke-miterlimit:4;stroke-dasharray:none;stroke-opacity:1"
       d="m 386.89947,290.19922 c 0.59891,-1.47215 1.64713,-4.0588 2.32937,-5.74811 0.83848,-2.07617 -0.11159,-3.42505 -2.93185,-4.16256 -2.36455,-0.61835 -3.6299,-2.06065 -2.92043,-3.32885 0.68852,-1.23078 -2.40056,1.24327 -6.86462,5.49787 -7.94678,7.57393 -8.19987,7.66018 -12.10534,4.12578 -7.1648,-6.48406 -3.90795,-10.19744 12.25813,-13.97644 6.23011,-1.45635 6.905,-3.71448 1.96934,-6.58924 -2.7798,-1.61909 -2.86455,-2.01889 -0.43819,-2.06719 1.65447,-0.0329 5.01579,1.34633 7.46959,3.06504 3.75399,2.62939 4.97493,2.70746 7.69958,0.49233 2.82766,-2.29889 3.06226,-2.16411 1.85075,1.06335 -0.78598,2.09387 -0.30558,5.02804 1.10828,6.76905 2.10766,2.59535 1.96967,2.87608 -0.88762,1.80573 -1.86079,-0.69705 -3.99167,-0.28295 -4.73527,0.92023 -0.74361,1.20318 -0.54067,1.68616 0.45098,1.07329 0.99165,-0.61287 3.51799,0.13972 5.6141,1.67243 2.80912,2.05408 3.23219,3.36566 1.60917,4.98868 -1.21106,1.21105 -1.82063,3.20168 -1.3546,4.42362 0.50554,1.32552 -1.58454,2.3084 -5.18148,2.43666 -4.35453,0.15526 -5.72641,-0.52837 -4.93989,-2.46167 z m -16.63507,-5.41994 c 0,-0.42568 -1.37533,-1.30173 -3.05628,-1.94677 -1.75256,-0.67252 -2.54304,-0.34237 -1.85311,0.77397 1.15651,1.87127 4.90939,2.76779 4.90939,1.1728 z m 17.724,-11.04202 c 0,-1.08314 -0.93851,-1.96934 -2.08556,-1.96934 -1.14706,0 -1.53786,0.8862 -0.86844,1.96934 0.66941,1.08313 1.60791,1.96933 2.08555,1.96933 0.47765,0 0.86845,-0.8862 0.86845,-1.96933 z"
       id="path1145"
       transform="scale(0.26458333)" />
    <path
       style="opacity:0.01;fill:#00c800;fill-opacity:0;stroke:#00c800;stroke-width:7.87733;stroke-miterlimit:4;stroke-dasharray:none;stroke-opacity:1"
       d=""
       id="path1147"
       transform="scale(0.26458333)" />
    <path
       style="opacity:0.01;fill:#00c800;fill-opacity:0;stroke:#00c800;stroke-width:7.87733;stroke-miterlimit:4;stroke-dasharray:none;stroke-opacity:1"
       d=""
       id="path1149"
       transform="scale(0.26458333)" />
  </g>
</svg>
